<?xml version="1.0" encoding="utf-8"?>
<!-- Generator: Adobe Illustrator 17.0.0, SVG Export Plug-In . SVG Version: 6.00 Build 0)  -->
<!DOCTYPE svg PUBLIC "-//W3C//DTD SVG 1.1//EN" "http://www.w3.org/Graphics/SVG/1.1/DTD/svg11.dtd">
<svg version="1.1" id="图层_1" xmlns="http://www.w3.org/2000/svg" xmlns:xlink="http://www.w3.org/1999/xlink" x="0px" y="0px"
	 width="98.023px" height="98.008px" viewBox="0 0 98.023 98.008" enable-background="new 0 0 98.023 98.008" xml:space="preserve">
<path fill="none" d="M39.842,0.869c-4.576,0.867-8.924,2.369-12.955,4.412l21.648,44.427L39.842,0.869z"/>
<path fill="none" d="M48.486,49.714l47.555,13.091c0.781-2.667,1.344-5.426,1.662-8.26l-49.169-4.835L48.486,49.714z"/>
<path fill="none" d="M49.011,0c-1.253,0-2.49,0.062-3.719,0.155l7.51,0.005C51.55,0.064,50.289,0,49.011,0z"/>
<path fill="none" d="M70.398,4.904c-4.118-2.001-8.561-3.433-13.225-4.215l-8.639,49.02L70.398,4.904z"/>
<path fill="none" d="M97.237,40.307c-0.507-2.827-1.243-5.573-2.212-8.21l-46.49,17.611L97.237,40.307z"/>
<path fill="none" d="M87.991,19.312c-1.695-2.221-3.576-4.292-5.619-6.192L48.535,49.709L87.991,19.312z"/>
<path fill="none" d="M48.31,49.731l-4.297,48.039c1.643,0.166,3.31,0.252,4.997,0.252c1.391,0,2.764-0.072,4.125-0.186L48.322,49.73
	L48.31,49.731z"/>
<path fill="none" d="M48.275,49.735l-25.071,40.94c2.276,1.413,4.675,2.643,7.179,3.673L48.29,49.733L48.275,49.735z"/>
<path fill="none" d="M48.442,49.869l-0.088-0.142l-0.012,0.001L66.647,94.74c2.594-1.001,5.084-2.211,7.443-3.62L48.518,49.992
	L48.442,49.869z"/>
<path fill="none" d="M48.381,49.724l36.62,32.545c1.89-2.044,3.603-4.252,5.126-6.595L48.404,49.722L48.381,49.724z"/>
<path fill="none" d="M15.159,13.589c-1.99,1.902-3.828,3.962-5.476,6.174l38.852,29.946L15.159,13.589z"/>
<path fill="none" d="M0.314,54.504c0.308,2.764,0.851,5.456,1.599,8.061L47.96,49.766L0.314,54.504z"/>
<path fill="none" d="M48.535,49.709L2.828,32.591c-0.91,2.559-1.607,5.218-2.084,7.953l47.572,9.123L48.535,49.709z"/>
<path fill="none" d="M48.195,49.743L7.573,75.17c1.465,2.316,3.113,4.503,4.933,6.534l35.73-31.966L48.195,49.743z"/>
<polygon fill="#D52263" points="48.195,49.743 48.236,49.739 48.316,49.667 "/>
<polygon fill="#D52263" points="48.381,49.724 48.404,49.722 48.316,49.667 "/>
<polygon fill="#D52263" points="48.341,49.728 48.353,49.727 48.316,49.667 "/>
<polygon fill="#D52263" points="48.275,49.735 48.29,49.733 48.316,49.667 "/>
<path fill="#F3C53E" d="M97.703,54.544c0.204-1.817,0.319-3.661,0.319-5.533c0-2.972-0.279-5.878-0.786-8.704l-48.702,9.402
	L97.703,54.544z"/>
<path fill="#F3C53E" d="M48.316,49.667L0.744,40.544C0.264,43.296,0,46.122,0,49.011c0,1.858,0.113,3.689,0.314,5.493l47.645-4.738
	L48.316,49.667z"/>
<polygon fill="#D52263" points="48.316,49.667 48.486,49.714 48.535,49.709 "/>
<polygon fill="#D52263" points="48.31,49.731 48.322,49.73 48.316,49.667 "/>
<path fill="#F3C53E" d="M48.353,49.727l0.088,0.142l0.076,0.123L74.09,91.12c4.053-2.419,7.725-5.405,10.911-8.851l-36.62-32.545
	L48.353,49.727z"/>
<polygon fill="#D52263" points="48.353,49.727 48.381,49.724 48.316,49.667 "/>
<path fill="#F3C53E" d="M26.887,5.282c-4.317,2.188-8.264,4.995-11.728,8.307l33.376,36.12L26.887,5.282z"/>
<path fill="#F3C53E" d="M57.173,0.689c-1.437-0.241-2.894-0.416-4.371-0.529l-7.51-0.005c-1.847,0.139-3.666,0.377-5.451,0.714
	l8.693,48.84L57.173,0.689z"/>
<path fill="#F3C53E" d="M82.372,13.12C78.828,9.824,74.8,7.042,70.398,4.904L48.535,49.709L82.372,13.12z"/>
<path fill="#F3C53E" d="M95.024,32.098c-1.703-4.632-4.092-8.931-7.033-12.786L48.535,49.709L95.024,32.098z"/>
<path fill="#F3C53E" d="M9.683,19.763c-2.886,3.874-5.206,8.192-6.855,12.828l45.707,17.118L9.683,19.763z"/>
<path fill="#F3C53E" d="M47.96,49.766L1.914,62.566c1.293,4.501,3.211,8.735,5.659,12.605l40.622-25.428L47.96,49.766z"/>
<polygon fill="#D52263" points="47.96,49.766 48.195,49.743 48.316,49.667 "/>
<path fill="#F3C53E" d="M48.236,49.739l-35.73,31.966c3.113,3.474,6.715,6.498,10.697,8.97l25.071-40.94L48.236,49.739z"/>
<polygon fill="#D52263" points="48.236,49.739 48.275,49.735 48.316,49.667 "/>
<path fill="#F3C53E" d="M48.29,49.733L30.383,94.348c4.275,1.759,8.85,2.938,13.631,3.423l4.297-48.039L48.29,49.733z"/>
<polygon fill="#D52263" points="48.29,49.733 48.31,49.731 48.316,49.667 "/>
<path fill="#F3C53E" d="M48.322,49.73l4.814,48.107c4.727-0.394,9.26-1.457,13.51-3.097L48.341,49.728L48.322,49.73z"/>
<polygon fill="#D52263" points="48.322,49.73 48.341,49.728 48.316,49.667 "/>
<path fill="#F3C53E" d="M48.486,49.714l-0.082,0.008l41.723,25.952c2.558-3.937,4.565-8.261,5.914-12.869L48.486,49.714z"/>
<polygon fill="#D52263" points="48.404,49.722 48.486,49.714 48.316,49.667 "/>
</svg>
